<svg id="Layer_1" data-name="Layer 1" xmlns="http://www.w3.org/2000/svg" viewBox="0 0 354.48 306.34"><defs><style>.cls-1{fill:#96b983}.cls-2{fill:#ffc13a}.cls-5{fill:#2f64b0}.cls-6,.cls-9{fill:#fff}.cls-6{opacity:.35}.cls-7{opacity:.17}.cls-8{fill:none}.cls-8,.cls-9{stroke:#232323;stroke-linecap:round;stroke-linejoin:round;stroke-width:5px}.cls-10{fill:#232323}</style></defs><path class="cls-1" d="M239.56 157.5l11-5.49 11.69-4.21 14.45-3.93 18.49.29 22.81 4.62 15.2 6 23.62 15.65 13 17.92s12.95 26.12 1.26 57.24-44.71 38.89-44.71 38.89l1.18-6.77 4.09-12.77v-13.87l-9.92-15-11.14-7-18.11-2.36-19.56 4.67-13.5 3.79-15.55 6.5-8.55 5.57-9.25 2.08-24.12-6.47-14.17-1.38-15 1-7.23 1.39" transform="translate(-23.99 -46.8)"/><path class="cls-2" d="M136.17 74.31l-17.78.63-12.6 2.87-20.37 11.24-32.36 26.22L37.4 135.6S32 148 31.3 148.19 25.39 166 25.39 166l3.6 14.2 3 9.35 11 12.81 9 5.51 10 6.63 8.27 5.5 10.52 5.27L90 228l10.66 3.68-11.25.32L78 236.07l-5 5.66 2.46 6.69 5.3 4 6.31 3 16.12 5.2 4.7 12.87 8.43 21.87 8.33 11.17 6.24 4.52-1.25 9.56-4.64 17.71 1.21 10.31 5.71 2 16-11.4 11.57-14 8.73-6.43 20.87-4.34 15.51-7.42 6.4-5.14 3.18 3.14L231.24 319s8.46 4.27 9.09 4.43 7.06-.57 7.06-.57l3.15-5.75-2.79-7.32-6.37-12.62-5.77-9-4.16-5.79 24.8 6.93 11.68 4.05 9.13 1.56 8.57 1.18 9.89-.73 10.87-.45 10.35-4.92 12.35-13.47 3.53-16.45-1.76-16.23-11.06-10.56-15.58-4.21H292l-19.56 2.51L258.3 235l-13 5.76-12 8.67-9.41-1.74-16.72-1.9-24.17-1.94-14.35 2.07 2.65-5.48 6.58-7.79s4.18-4.23 4.7-4.69 14.8-6.79 14.8-6.79l21.29-13.25 11.86-14.56 5.51-19.7-.87-21.66-8.83-22-20.66-26.48L180.82 83l-22.64-6.44-22-2.2" transform="translate(-23.99 -46.8)"/><path class="cls-1" d="M160.58 262.69l-2.74 3.08-5.67 4.77s-.57 2.53-.72 2.77 1.92 3 1.92 3l3.2.19 5.9-.83 5 2.31 5.26 5.51 6.25 3.64 4.43-2.07.49-3.74-1.13-4.82-2.56-3.34-13-5.42-2.93-3.41z" transform="translate(-23.99 -46.8)"/><path d="M264.55 147.42S371 174.79 375 205.87s-.9 1.36-.9 1.36l-8.61-26.07-12.09-13.79-22.79-15.44-27.53-6.88-34.53 1.33" transform="translate(-23.99 -46.8)" fill="#b0d19d"/><path d="M359.73 267s-25.74 3.95-26.6-3.82-3.81 12.45-3.81 12.45l-1.77 5.9V285l10-1.48 12.79-7.83m-194.46-10.4s11 4.25 13.77 8.23 11.91 4.07 11.91 4.07l1.76-2.7-7.06-4-7.53-2.56-4.47-4-3.4-2.39-2.33 2.31" transform="translate(-23.99 -46.8)" fill="#728c62"/><path class="cls-5" d="M218.53 119.7s-21.32-22.09-54.39-9.49-43.3 40.93-39 64 42.74 59.73 68.9 48.37 39.15-31.44 39.15-31.44l4.19-25.6-3.36-17.19-15.49-28.65m-29.29-30.95l5.11-5.51 10.16-3.75 13.66-3.9 8.26 1.06 3.64 8.17-2.45 15.84-3.25 14.66-3 4-6.68-4.6s-9.56-11.84-9.76-12.13-9.72-9-9.72-9zm-48.69-38.93l-10.16 1.42-12.22 8.32-13.37 12.89-5.09 7h4.8l9.58-3.91 12-1.56s14.83.52 15.28.59a17.19 17.19 0 003.25-1.28l2.66-8.64.58-7.35-2.65-4.94-4.63-2.5M72.75 97.47c-1-1.71 39.67 8.22 30.58 52.92C94.28 194.88 43 202.31 43 202.31l-8.76-12-7-13.45-.75-10.86s1.29-8.53 1.56-9.58 4.41-12.27 4.51-12.5S40 131 40 131l10.43-13.11 9.57-9.66 6.82-6 5.89-4.75" transform="translate(-23.99 -46.8)"/><ellipse class="cls-5" cx="147.05" cy="288.16" rx="11.69" ry="19.57" transform="rotate(-40.44 71.504 297.299)"/><path class="cls-5" d="M225.43 258s4.94 11.8 5.53 23l18 5.21s4.24-41.13-11.56-38.47l-12 10.24m41.6-25.67s10.48 11.38 9.3 35.3-2.55 27-2.55 27l19.82 1.45 1.92-.73s9.15-22-4.43-66.28L267 232.31m49-.92s7.55 12.16 7 26.62-1.33 27-1.33 27l6.89-7.33 3.08-9.22 2.58-9.09-1.57-8.32-2.12-8.7-4.58-5.91-5.25-2.62-4.7-2.43" transform="translate(-23.99 -46.8)"/><path class="cls-2" d="M82.21 31l-14.52 6.65"/><path class="cls-6" d="M93 84.87s38.09-7.59 68.19 0c35.13 8.85 60.37 43.31 60.37 43.31l-6.82-13.42-7.91-9.76-7.4-7.48-10.19-7.56-26.43-10.5L145.17 74 107 77.53l-12.23 5.71" transform="translate(-23.99 -46.8)"/><path class="cls-7" d="M32.34 186.63s54 51.55 155.51 37.7l-14.19 13.23s-32.59 12.78-77.14-8.48l-28-9L52 207.82l-11.43-7.68-7.13-8.42zm212.55 117.14s-3.84 16.53-17 11.51l8.49 7.83h8.49l4.6-2.36-.53-7.31-4.27-10.44.22.78" transform="translate(-23.99 -46.8)"/><path class="cls-7" d="M305.43 228.09l-95.68 6.95 32.1 11 15.74 2.37 9.36 1.64 9.91-1.14 12.68-5.67 13.32-8.29 2.57-6.86"/><path class="cls-7" d="M162.57 255.06s22.83 17.61 28 18-8.76-.89-8.76-.89l-12.16-4.72-4-3.36-3-4.71zm-89.35-12.78s19.78 11.61 30 17.11-10.43-1.18-10.43-1.18L78.34 250l-5.12-7.68m54.51 84.16s9.25 15.57 17.52 12-11.25 9.08-11.25 9.08l-6.3 1.59-3.5-4.34 1-8.06 2.48-10.27" transform="translate(-23.99 -46.8)"/><path class="cls-6" d="M120.81 57.42s29.19-3.52 26.44 6.49.58-6.65.58-6.65L139.2 48l-9.61 3.67-8.78 5.79M202 80.65s30.72 5.09 28.11 17.79-1-14-1-14l-2.66-7.8-15.49 1.16-6.43 1.68" transform="translate(-23.99 -46.8)"/><path class="cls-8" d="M169.46 228.79s43.39-4.14 61.11-35.43S230 126.64 194.55 93c0 0-54.61-40.15-107.16-5.91s-77.65 80.6-48.71 111.3c0 0 37.88 38.77 97.32 35.23" transform="translate(-23.99 -46.8)"/><path class="cls-8" d="M100.69 230.8s-30.13.94-27.28 12.45 31.89 17.91 31.89 17.91 5.85 42.17 27.7 50.84c0 0-15.94 36.6-3.54 38.52s34.39-31.44 34.39-31.44 30.41-.69 47.13-17.22c0 0 26.67 27.7 36.41 20.91s-15.94-40.44-15.94-40.44 47.83 17.56 66.13 14 34.64-10.43 35-38-25-31.3-39.36-30.31-54.91 6.1-68.29 32.47" transform="translate(-23.99 -46.8)"/><path class="cls-8" d="M232.22 250.51s-61-15-69.85 0 17.32 23.84 30.31 24.43m23.79-27.69s8.64 8.84 9.35 11.72" transform="translate(-23.99 -46.8)"/><path class="cls-8" d="M161.59 260.65a21.61 21.61 0 01-6 7c-3.69 2.51-8.41 7.38-3.1 9.08s7.9-1.18 13.07.66 9.15 9.45 14 8.93 7.53-5.67 3-12.83m-16-26.66S177.58 231 186 225.3M323.27 285c56.4-6.19 52.64-66.77 52.64-66.77.59-46.85-40.54-68.69-75.38-73.61s-63.71 15.15-63.71 15.15m-93.07-85.94s10.06-20.4-4-24.24-43.23 32.27-43.23 32.27m123.17 39.43s17.27-32 7.73-42.67-39.57 10.11-39.57 10.11" transform="translate(-23.99 -46.8)"/><ellipse class="cls-9" cx="47.61" cy="96.66" rx="27.01" ry="28.19"/><ellipse class="cls-9" cx="134.98" cy="109.57" rx="27.01" ry="28.19"/><ellipse class="cls-10" cx="111.79" cy="158.18" rx="2.71" ry="4.03" transform="rotate(-82.32 73.024 148.497)"/><ellipse class="cls-10" cx="88.91" cy="143.13" rx="15.94" ry="10.43" transform="rotate(-82.32 50.138 133.445)"/><ellipse class="cls-10" cx="143.17" cy="151.39" rx="15.94" ry="10.43" transform="rotate(-82.32 104.403 141.712)"/><path class="cls-8" d="M103.12 161.47s-4.67 3.81-1.06 6.21 7.24-1.29 7.24-1.29 2 4.67 7 4 4.49-5.55 4.49-5.55" transform="translate(-23.99 -46.8)"/></svg>