<svg version="1.1" id="Layer_1_ayam" xmlns="http://www.w3.org/2000/svg" xmlns:xlink="http://www.w3.org/1999/xlink" x="0" y="0" viewBox="0 0 381 417" xml:space="preserve"><style>.st0{stroke-linecap:round}.st0,.st11{fill:none;stroke:#232323;stroke-width:5;stroke-linejoin:round;stroke-miterlimit:10}.st15{fill:#232323}</style><path class="st0" d="M223.9 160.7v13.4m-18.3 25.1v.8"/><path d="M69.7 230.9s-25.3 9.3-16.1 19.3c7.4 8.1 13.3-4.2 13.3-4.2" fill="#d1423c" stroke="#232323" stroke-width="5" stroke-linecap="round" stroke-linejoin="round" stroke-miterlimit="10"/><defs><path id="SVGID_1_" d="M259 329.5c14.4-46.1 32.1-72.9 41.3-84.7 3.1-4 9.2-3.8 12.1.3 10.4 14.6 31.5 50.1 37.5 104.5.5 4.5-1.9 8.7-5.9 10.7-4.1 2-10.6 5-20.8 9.3 0 0-1.9-17.6-2.9-23.3-4.1-22.2-7.8-35.2-7.8-35.2s3.9 13.6 7.8 35.2c2.4 13.4 2.9 23.3 2.9 23.3s-9.3 2.7-12.1 3.5c-4.3 1.3-8.7-1.7-9.1-6.1-.8-9.1-3-27-8.6-41l-26.1 44.5"/></defs><use xlink:href="#SVGID_1_" overflow="visible" fill="#034349"/><clipPath id="SVGID_2_"><use xlink:href="#SVGID_1_" overflow="visible"/></clipPath><path d="M262.5 338.7c-.7 0 35.7-86.3 43.7-87 13.4-1.2 15.2 13.3 15.2 13.3l-17-39.8-25.5-3.5-23.2 29.3v65l6.8 22.7" clip-path="url(#SVGID_2_)" fill="#3d5152"/><path d="M330 280.1s14.4 68 9.4 82.4c-5 14.4 10.5-6.4 10.5-6.4l-3.8-62.5-16.1-13.5z" clip-path="url(#SVGID_2_)" fill="#033133"/><path d="M115.8 165.4l-24.2 8.8c-4.1 1.5-7.3 4.8-8.6 8.9-4.4 13.3-14.8 45.7-26 87.8-9.2 34.5-15.5 61.5-19.6 80.3-3.6 16.5 9 32 25.9 32H147l106.3-4.1c9.1-.4 15.5-9 13.2-17.8-2.4-9.4-6.2-22-11.7-36.4-8.8-22.9-20.2-39.7-27-48.6-3.4-4.5-9-6.9-14.6-6.3-10.5 1.1-28.3 3.2-40.6 6.1-21.8 5.2-43.1 13.8-43.1 13.8s9.4-23.9 15.7-48.1c5.5-21.5 9.9-43.6 11.5-52.3.4-2 2.4-3.2 4.3-2.7 1.2.3 2.6.6 4.3.9 2.5.3 4.4.6 5.8.7 2.3.2 4.5-.7 6-2.3 1-1.1 2.3-2.7 3.6-4.9 2.4-4 3.5-7.8 4-10.1.4-1.7-.3-3.4-1.6-4.4-.8-.6-1.9-1.3-3.3-2.2-1.9-1.2-3.6-2-4.9-2.5-1.4-.6-1.6-2.4-.5-3.3 1.4-1.2 3.1-3 5.1-5.2 2.2-2.6 3.7-4.9 4.6-6.4.8-1.4.7-3.1-.3-4.4-1.4-1.8-3.7-4.2-7.3-5.8-4.2-1.9-7.2-2.8-9.3-3.3-2-.5-4.1.3-5.3 2l-6.2 8.6c-.6.8-1.9.3-1.8-.7.8-6 2.2-18 2.6-29.4.5-13.2.7-24.1.8-30.6 0-3.7-3.2-6.5-6.9-5.9-5.9.9-14.9 2.8-24.2 6.5-11.7 4.6-18.6 9.7-22.2 13.1-2.3 2.1-3.4 5.1-3.2 8.2.5 6.2 1.8 18 5.6 29.1 3.9 11.1 8.7 20.4 11.5 25.4 1.3 1.9.3 4.6-2.1 5.5z" fill="#f49290"/><defs><path id="SVGID_3_" d="M124.8 104.9c.5 6.2 1.8 18 5.6 29.1 3.9 11.1 8.7 20.4 11.5 25.4 1.2 2.2.2 4.9-2.2 5.8l-24.2 8.8c-4.1 1.5-7.3 4.8-8.6 8.9-4.4 13.3-14.8 45.7-26 87.8-9.2 34.5-15.5 61.5-19.6 80.3-3.6 16.5 9 32 25.9 32h60.1l106.3-4.1c9.1-.4 15.5-9 13.2-17.8-2.4-9.4-6.2-22-11.7-36.4-8.8-22.9-20.2-39.7-27-48.6-3.4-4.5-9-6.9-14.6-6.3-10.5 1.1-28.3 3.2-40.6 6.1-21.8 5.2-43.1 13.8-43.1 13.8s9.4-23.9 15.7-48.1c5.5-21.5 9.9-43.6 11.5-52.3.4-2 2.4-3.2 4.3-2.7 1.2.3 2.6.6 4.3.9 2.5.3 4.4.6 5.8.7 2.3.2 4.5-.7 6-2.3 1-1.1 2.3-2.7 3.6-4.9 2.4-4 3.5-7.8 4-10.1.4-1.7-.3-3.4-1.6-4.4-.8-.6-1.9-1.3-3.3-2.2-1.9-1.2-3.6-2-4.9-2.5-1.4-.6-1.6-2.4-.5-3.3 1.4-1.2 3.1-3 5.1-5.2 2.2-2.6 3.7-4.9 4.6-6.4.8-1.4.7-3.1-.3-4.4-1.4-1.8-3.7-4.2-7.3-5.8-4.2-1.9-7.2-2.8-9.3-3.3-2-.5-4.1.3-5.3 2L156 144c-.6.8-1.9.3-1.8-.7.8-6 2.2-18 2.6-29.4.5-13.2.7-24.1.8-30.6 0-3.7-3.2-6.5-6.9-5.9-5.9.9-6.7 2.8-16 6.5 0 0-4.4 2.1-7.8 9.3-2.7 5.6-2.1 11.7-2.1 11.7z"/></defs><use xlink:href="#SVGID_3_" overflow="visible" fill="#ff4457"/><clipPath id="SVGID_4_"><use xlink:href="#SVGID_3_" overflow="visible"/></clipPath><path d="M121 335.3s8 20.2 18 23.5 22.6 5.7 40.9 3.8c18.3-2 21.9-14.1 21.9-14.1l4.3-8.7 3.2-4.6s.7 3.8-1.5 8.4c0 0 6.5 4.8 5.3 9.3-1.2 4.5 2.1 20.4-40.7 22.5s-42.9-13.2-42.9-13.2l-8.5-26.9" clip-path="url(#SVGID_4_)" fill="#ff4457"/><defs><path id="XMLID_2_" d="M259 329.5s-9.3 46.8-125.9 47.1C31.1 376.8 62.2 265 62.2 265l-23.4 90.8 4.6 14.6 8.3 7.8 10.9 3.7h30.5l77.5-.8 72.8-2.8 18.5-2.5s5.6-4.8 6.2-7.8 0-15.2 0-15.2l-9.1-23.3"/></defs><use xlink:href="#XMLID_2_" overflow="visible" fill="#034349"/><clipPath id="XMLID_6_"><use xlink:href="#XMLID_2_" overflow="visible"/></clipPath><path d="M60.3 325.3l-2.7 11.3C51.9 359.7 69.4 382 93.2 382l-62.6 8.6 26.9-122.2 17.6 12.5-14.8 44.4" clip-path="url(#XMLID_6_)" fill="#3d5152"/><path clip-path="url(#XMLID_6_)" fill="#033133" d="M254.8 339.6l11.1 35.1-34.2 1.9 3.8 6.8 41.8.9 1.1-19.8-19.4-38-9.1 6z"/><path d="M141.1 293.6s36.8-21.1 76.6-15.2" fill="none" stroke="#232323" stroke-width="17" stroke-linecap="round" stroke-linejoin="round" stroke-miterlimit="10"/><path fill="#faa819" d="M75.5 204.1L59 207.6l-1.7 7.4 5.5 6.2 7.5 4 4.3-18.2.9-2.9"/><path fill="none" stroke="#fdc76e" stroke-width="8" stroke-miterlimit="10" d="M67.5 225.3l7-22.2"/><path class="st11" d="M77.8 204.4s-13.9-2-20.4 5.5c0 0-2.2 8.8 11.8 15.3M259 329.5c14.4-46.1 32.1-72.9 41.3-84.7 3.1-4 9.2-3.8 12.1.3 10.4 14.6 31.5 50.1 37.5 104.5.5 4.5-1.9 8.7-5.9 10.7-4.1 2-10.6 5-20.8 9.3 0 0-1.9-17.6-2.9-23.3-4.1-22.2-7.8-35.2-7.8-35.2s3.9 13.6 7.8 35.2c2.4 13.4 2.9 23.3 2.9 23.3s-9.3 2.7-12.1 3.5c-4.3 1.3-8.7-1.7-9.1-6.1-.8-9.1-3-27-8.6-41l-26.1 44.5"/><path class="st11" d="M117.8 164.1l-24.2 8.8c-4.1 1.5-7.3 4.8-8.6 8.9-4.4 13.3-14.8 45.7-26 87.8-9.2 34.5-15.5 61.5-19.6 80.3-3.6 16.5 9 32 25.9 32H149l106.3-4.1c9.1-.4 15.5-9 13.2-17.8-2.4-9.4-6.2-22-11.7-36.4-8.8-22.9-20.2-39.7-27-48.6-3.4-4.5-9-6.9-14.6-6.3-10.5 1.1-28.3 3.2-40.6 6.1-21.8 5.2-43.1 13.8-43.1 13.8s9.4-23.9 15.7-48.1c5.5-21.5 9.9-43.6 11.5-52.3.4-2 2.4-3.2 4.3-2.7 1.2.3 2.6.6 4.3.9 2.5.3 4.4.6 5.8.7 2.3.2 4.5-.7 6-2.3 1-1.1 2.3-2.7 3.6-4.9 2.4-4 3.5-7.8 4-10.1.4-1.7-.3-3.4-1.6-4.4-.8-.6-1.9-1.3-3.3-2.2-1.9-1.2-3.6-2-4.9-2.5-1.4-.6-1.6-2.4-.5-3.3 1.4-1.2 3.1-3 5.1-5.2 2.2-2.6 3.7-4.9 4.6-6.4.8-1.4.7-3.1-.3-4.4-1.4-1.8-3.7-4.2-7.3-5.8-4.2-1.9-7.2-2.8-9.3-3.3-2-.5-4.1.3-5.3 2l-6.2 8.6c-.6.8-1.9.3-1.8-.7.8-6 2.2-18 2.6-29.4.5-13.2.7-24.1.8-30.6 0-3.7-3.2-6.5-6.9-5.9-5.9.9-14.9 2.8-24.2 6.5-11.7 4.6-18.6 9.7-22.2 13.1-2.3 2.1-3.4 5.1-3.2 8.2.5 6.2 1.8 18 5.6 29.1 3.9 11.1 8.7 20.4 11.5 25.4 1.3 1.8.3 4.6-2.1 5.5z"/><path class="st0" d="M114.7 333.6l8.8 23.5c1.7 4.5 5.4 7.9 10 9.1 11.1 3 33.6 6.7 62.4-1.7 2.5-.7 5.7-3 7.1-5.2 4.6-7.3-1.8-14.4-11-14.4 0 0 8.7-5.8 8.7-11.7 0-5.5-3.9-8.1-13.3-8.1"/><defs><circle id="SVGID_5_" cx="207.2" cy="220.1" r="25.8"/></defs><use xlink:href="#SVGID_5_" overflow="visible" fill="#f6e06f"/><clipPath id="SVGID_6_"><use xlink:href="#SVGID_5_" overflow="visible"/></clipPath><path d="M228.8 205.9s-3.9 32-28 34.9c-24.1 2.9 3.2 4.8 3.2 4.8l9.4.2 15.4-4.8 5-12.1-1.5-19.4-3.5-3.6z" clip-path="url(#SVGID_6_)" fill="#edcd48"/><path d="M207.2 194.2s-23.8 13.6-21.5 40.1C188 260.8 177 207 177 207l19.6-23.4 7.3.7 3.3 9.9z" clip-path="url(#SVGID_6_)" fill="#ffeeae"/><g clip-path="url(#SVGID_6_)"><path class="st15" d="M201.1 226.7l-.6.2-.9.2 1 3.6c.2.6-.2 1.3-.8 1.5l-2.5.7c-.6.2-1.3-.2-1.5-.8l-5-17.8c-.2-.6.2-1.3.8-1.5l4.8-1.3c4.4-1.2 8 .6 9.4 5.5l.1.5c.7 2.4.4 4.4-.6 5.9-.3.4-.2 1 .1 1.4l2.8 3.3c.6.7.3 1.7-.6 1.9l-2.4.7c-.5.1-.9 0-1.2-.4l-2.9-3.6zm-2.5-3.6l.9-.3c1.7-.5 2.4-2 1.8-4.1l-.1-.4c-.6-2.2-2-3.1-3.7-2.6l-.9.3 2 7.1zM206 210c-.2-.6.2-1.3.8-1.5l4.8-1.3c4.3-1.2 8 .5 9.4 5.5l.1.5c1.4 5-.8 8.3-5.2 9.6-.6.2-1 .8-.8 1.5l.6 2.3c.2.6-.2 1.3-.8 1.5l-2.5.7c-.6.2-1.3-.2-1.5-.8l-4.9-18zm7.7 9l.9-.3c1.7-.5 2.4-2.1 1.8-4.2l-.1-.4c-.6-2.1-2-3.1-3.7-2.6l-.9.3 2 7.2z"/></g><use xlink:href="#SVGID_5_" overflow="visible" fill="none" stroke="#232323" stroke-width="5" stroke-linejoin="round" stroke-miterlimit="10"/><defs><circle id="SVGID_7_" cx="238.7" cy="161.7" r="25.8"/></defs><use xlink:href="#SVGID_7_" overflow="visible" fill="#f6e06f"/><clipPath id="SVGID_8_"><use xlink:href="#SVGID_7_" overflow="visible"/></clipPath><path d="M260.2 147.5s-3.9 32-28 34.9c-24.1 2.9 3.2 4.8 3.2 4.8l9.4.2 15.4-4.8 5-12.1-1.5-19.4-3.5-3.6z" clip-path="url(#SVGID_8_)" fill="#edcd48"/><path d="M238.7 135.8s-23.8 13.6-21.5 40.1c2.3 26.5-8.7-27.3-8.7-27.3l19.6-23.4 7.3.7 3.3 9.9z" clip-path="url(#SVGID_8_)" fill="#ffeeae"/><g clip-path="url(#SVGID_8_)"><path class="st15" d="M229.2 161.7l-.5-.3-.8-.4-1.8 3.3c-.3.6-1 .8-1.6.5l-2.3-1.2c-.6-.3-.8-1-.5-1.6l8.9-16.2c.3-.6 1-.8 1.6-.5l4.4 2.4c4 2.2 5.3 6 2.9 10.5l-.3.5c-1.2 2.1-2.8 3.4-4.6 3.9-.5.1-.9.6-.9 1.1l-.3 4.3c-.1.9-1 1.4-1.8 1l-2.2-1.2c-.4-.2-.7-.7-.6-1.1l.4-5zm.7-4.4l.9.5c1.5.8 3.1.2 4.2-1.7l.2-.4c1.1-2 .7-3.6-.8-4.4l-.9-.5-3.6 6.5zm14.4-4.2c.3-.6 1-.8 1.6-.5l4.4 2.4c3.9 2.2 5.4 6 2.9 10.5l-.3.5c-2.5 4.5-6.4 5.4-10.4 3.2-.6-.3-1.3-.1-1.6.5l-1.1 2.1c-.3.6-1 .8-1.6.5l-2.3-1.2c-.6-.3-.8-1-.5-1.6l8.9-16.4zm-.8 11.8l.9.5c1.5.8 3.1.2 4.2-1.8l.2-.4c1-1.9.7-3.6-.8-4.4l-.9-.5-3.6 6.6z"/></g><use xlink:href="#SVGID_7_" overflow="visible" fill="none" stroke="#232323" stroke-width="5" stroke-linejoin="round" stroke-miterlimit="10"/><defs><circle id="SVGID_9_" cx="212.8" cy="104.7" r="25.8"/></defs><use xlink:href="#SVGID_9_" overflow="visible" fill="#f6e06f"/><clipPath id="SVGID_10_"><use xlink:href="#SVGID_9_" overflow="visible"/></clipPath><path d="M234.4 90.5s-3.9 32-28 34.9 3.2 4.8 3.2 4.8l9.4.2 15.4-4.8 5-12.1-1.4-19.3-3.6-3.7z" clip-path="url(#SVGID_10_)" fill="#edcd48"/><path d="M212.8 78.9S189 92.5 191.3 119c2.3 26.5-8.7-27.3-8.7-27.3l19.6-23.4 7.3.7 3.3 9.9z" clip-path="url(#SVGID_10_)" fill="#ffeeae"/><g clip-path="url(#SVGID_10_)"><path class="st15" d="M223.1 103.5l.5.3.8.5 2-3.2c.4-.6 1.1-.7 1.7-.4l2.2 1.4c.6.4.7 1.1.4 1.7l-9.8 15.7c-.4.6-1.1.7-1.7.4l-4.2-2.6c-3.9-2.4-5-6.3-2.3-10.6l.3-.5c1.3-2.1 3-3.2 4.8-3.6.5-.1.9-.5 1-1l.5-4.3c.1-.9 1.1-1.3 1.8-.9l2.1 1.3c.4.2.6.7.6 1.2l-.7 4.6zm-1 4.3l-.8-.5c-1.5-.9-3.1-.4-4.3 1.5l-.2.4c-1.2 2-.9 3.5.5 4.5l.8.5 4-6.4zm-14.6 3.4c-.4.6-1.1.7-1.7.4l-4.2-2.6c-3.8-2.4-5-6.3-2.3-10.6l.3-.5c2.7-4.4 6.7-5 10.6-2.6.6.4 1.3.2 1.7-.4l1.3-2c.4-.6 1.1-.7 1.7-.4l2.2 1.4c.6.4.7 1.1.4 1.7l-10 15.6zm1.4-11.7l-.8-.5c-1.5-.9-3.1-.3-4.3 1.5l-.2.4c-1.1 1.8-.9 3.6.5 4.5l.8.5 4-6.4z"/></g><use xlink:href="#SVGID_9_" overflow="visible" fill="none" stroke="#232323" stroke-width="5" stroke-linejoin="round" stroke-miterlimit="10"/><path class="st0" d="M221.2 39.1v38.5m-19.5-13.4V80m-4.2 90.1v24.1m0-38.6v5.6"/><path fill="none" stroke="#232323" stroke-width="6" stroke-linecap="round" stroke-linejoin="round" stroke-miterlimit="10" d="M212.8 188.6v5.6"/><path class="st0" d="M247.9 110.9V135m0-38.8v5.6"/><defs><ellipse id="SVGID_11_" cx="112" cy="207" rx="21" ry="24.5"/></defs><use xlink:href="#SVGID_11_" overflow="visible" fill="#fff"/><clipPath id="SVGID_12_"><use xlink:href="#SVGID_11_" overflow="visible"/></clipPath><ellipse cx="101.9" cy="207.6" rx="8.8" ry="12" clip-path="url(#SVGID_12_)" fill="#232323"/><use xlink:href="#SVGID_11_" overflow="visible" fill="none" stroke="#232323" stroke-width="5" stroke-linejoin="round" stroke-miterlimit="10"/></svg>