<svg id="Layer_1" data-name="Layer 1" xmlns="http://www.w3.org/2000/svg" viewBox="0 0 337.66 366.69"><defs><style>.cls-2{fill:#fe8d3e}.cls-4{fill:#ff6d08}.cls-7{fill:#f96fab}.cls-8{fill:#e86e1c}.cls-10{fill:#ddd}.cls-11,.cls-16{fill:none;stroke-linecap:round}.cls-11{stroke:#fff;stroke-miterlimit:10;stroke-width:3px}.cls-12{fill:#30708c}.cls-15{fill:#bc4b51}.cls-16{stroke:#232323;stroke-linejoin:round;stroke-width:5px}</style></defs><path fill="#fff" d="M97.65 57.31l-10.6 12.43-4.47 4.67-9.69 13.4-8.62 5.24.08 6.76 4.36 36.17 4.05 9.26.13 50.54 8.07 12.25-1.01 41.7-18.2-10.41-20.11-15.53-17.13-18.28-13.92-12.8-6.48.6 8.69 22.55 9.53 14.38 13.63 16.92L52.2 264.8l6.3 7.06 9.53 7.49 6.64 3.4 1.28 6.3 14.35 45.79 7.35 20.04 5.74 6 4.81 1.92h5.51l2.89-2.87 3.65-13.48-.64-16.59 2.68-11.87 4.21-2.3 11.49 4.94 20.42 3.74 17.11-2.13 30.62-2.66 20.02-4.66 6.89-1.44 7.57.83 5.25 6 17.03 14.59 5.44 3.89 11.03 2.69 6.32-1.47 1.08-7.41-3.82-13.91-18.27-51.72-7.07-32.54-4.98-23.17-1.52-10.63 7.14 5.02 11.88 7.17 5.05 1.11 4.09-1.81-1.88-8.18-8.79-21.13-9.25-22.35-6.89-7.41-.79-6.7 8.87-18.49 1.43-19.75-5-26.55-16.29-7.99-23.8-20.01-19.4-12.59-35.23-3.07-35.75 3.07-28.85 16.34z"/><path class="cls-2" d="M309.45 150.88s-22-.16-40.56-13.1-11.36-29.84-30.28-29.3-21.46 26.83-48.36 40.32-48.59 4.49-48.59 4.49l3.8 16-3.19 1.53-10.43-20.47-6.84-23.2 1.91-5.81 5.3-10.34 27.95-27.61 22.09-11.08 13.22-5.71 17.93-2.42 30.64 2 16.58 5.37 19.06 14.66 15.42 19.55 13.53 28.39 16 30.67 11.2 28.45 6.45 19.38-1.18 13.45-6.05 9.71-8.8 9.05h-4L315 228.2l-7.66-11.61-2.63-7.75-.44-11.53 2.89-9.83 2.8-22 .44-9.1-1-5.54" transform="translate(-50.16 -57.73)"/><path class="cls-2" d="M59.78 91.07l-13.83 24.9-8.94 20.81-3.83 10.57 2.68 16.44 6.51 14.35 10.05 14.57 3.97 5.14 3.39 3.14 5.19-3.15 3.15-2.89 2.21-7.81 2.04-7.73.96-9.04 1.34-18.53-.62-7.79-5.34-8.39-4.44-17.14.95-11.66-1.53-9.11.58-5.02-1.86-3.19-2.63 1.53"/><path d="M94.84 124.65l.38 18.72-3.52 19.77-7.09 15.49-4.58 6.02-5.36-4.09-.62-4.98-2.19 5.78-.85 13.76v22.21l.98 21.06 1.23 22.33 1.77 15.01 3.04 10.92 2 8.18 5.65-2.21 8.65-4.95 17.79-6.77 10.73-9.13 10.75-15.91 7.28-22.25 3.44-17.96 3.64-27.34v-17.45l1.14-10.37-6.26-11.76-15.51-5.98-14.62-12.06-8.25-6.04-6.05-6.41-2.29-.66-1.28 7.07zm136.27 26.61l-7.23 2.11-9.88.19-6.95.96-2.94 5.68-1.99 19.59 1.69 21.28-.16 24.25 1.72 19.44.67 5.4 4.51 16.73 8.41 8.05 6.72 8.55 18.11 11.34 10.36 5.31h18.13l1.28-5.31-5.78-27.03-9.53-31.51-4.18-17.88-2.76-14.44v-15.32l-.45-13.79.45-8 1.06-20.71-1.06-3.95-7.81 5.3-10.65 3.76h-1.74z" fill="#a3d580"/><path class="cls-4" d="M253.78 221.17l-30.51-.78.29 6.94 6.19 4.08 18.24 5.62 8.98.51-.55-8.57-2.64-7.8z"/><path class="cls-4" d="M312.13 313.67l-12.81-.38s-17 2.49-17.6 2.3 0 8.36 0 8.36l14.17 3.13 10.92 2 7.58 1.76 2.25-1.19-4.51-13.34z" transform="translate(-50.16 -57.73)"/><path class="cls-4" d="M73.94 267.36l11.1-3.07 15.84-3.57 7.32-1.69-2.21-7.23-15.47 2.12-17.38 2.22.8 11.22m-2.93-33.24l8.83-2.88 14.17-.83 13.34 1.41 2.71-4.47v-7.02l-6.16-2.62H87.44l-12.77-.7-3.06.19-.6 16.92z"/><path fill="#e56566" d="M170.29 81.88l.25 14.9 1.28 6.82 4.77 6.7 9.31 2.03 7.56-2.55 6.57-8.69 2.81-7.4-.57-6.2-1.94-3.9-2.26-5.32-5.82-5.71-9.56.69-6.02 3.83-4.72.59-1.66 4.21z"/><path d="M354.87 278.44s-5.64 5.29-5.8 5.5l-4.22 5.54V292l-3.64-.38-6.83-4.09-6-3.19-7-4.72-5.62-5.75-2.61-2.5V267l6.12 2.88 3.73 1.22 5.73-1.28v-6.25l5.26 3.14 12.79 6.75 5.24 2.36 2.87 2.3M98 111l4 14.5 4.43 9.93 3.45 8.34 4 2.8 6-.68L123 143l3.32-4.73-2.55-6.59-1.61-9.11-2.16-5.9-1.18-7-2.69-1.66-5.32 2.49a26.11 26.11 0 00-4.17.43c-.34.26-6.24-.24-6.24-.24z" transform="translate(-50.16 -57.73)" fill="#4b96bf"/><path class="cls-7" d="M349.42 284.33l-4.57 7.67 4.57 6.32 8 4.39s9.87 5.48 10.21 5.65 6.12 2.39 6.12 2.39l4.26.93 4.24-4.08 3.5-5.28-4.1-7.3-6.54-5.13-14.63-9.7-4.48-1.75-6.47 3.63z" transform="translate(-50.16 -57.73)"/><path class="cls-7" d="M48.21 52.75l8.42 1.26 4.56-1.46 4.29-2.23.77-1.5v-8.94l-3.32-13.11-2.64-11.14-3.49-7.15-4-5.98-8.94.91-4.03 3.52-.85 3.59 2.07 12.19 2.39 14.87L48.2 48.9l.01 3.85"/><path class="cls-8" d="M308 180.06s12.87 44.44 23.85 57.21l-5 7.59-4.15 1.22-5.7-8.88-8.11-21-6.89-10v-10.72l3.91-3.91.6-8.6" transform="translate(-50.16 -57.73)"/><path d="M299.3 118.47l-3.58-5.63S260.53 49 172.22 77.11l13.12-9.46 16.51-2.47 18.05-.56 20.64 1.84 14.92 4.31 12.86 7.43 10.95 8 9.47 9.08 5.71 12.74" transform="translate(-50.16 -57.73)" fill="#ffaf78"/><path class="cls-8" d="M109.81 150.17s.38 74.93-4.56 73.91-20.89-22.29-20.89-22.29l-1 12.39 4.72 9.91 6.64 11.22L98 242.8l6.13 9.7 3.93 4.43 1.93 1.79 5.53-4.35 1.83-2 2.68-4.92 2.75-25.25 1.47-8.2-2.78-14.25-6.47-20.44c.09.26.21-13.1.21-13.1l.47-12.69-2-7z" transform="translate(-50.16 -57.73)"/><path class="cls-10" d="M334.29 380.4l-25.36 9.43s17.52 9.51 17.91 9.59 8.75 0 8.75 0l1.92-8.19M141.07 397s19.59 14.7 29.33 6.82l-5.59 16.95-4.75 1.11-9.57-6.83-4.49-7.64m106.14-185.72s-9.86 92.94.86 113.11 46.77 32.68 59.13 31.4 16.52-2.72 16.52-2.72l-6.33-5.61-19.83-2-14.17-6.07-15.58-10L261 325.37l-4-21.29-3-19.41-2.89-15.83m-54.79-8.21s-1.53 63.19-17.87 77.74-49.22 19.5-49.22 19.5l1-5.32L137 350l11.68-4.26 12.44-5.57 9.32-8 10.85-14.89 8.94-20.57 2.39-12.71" transform="translate(-50.16 -57.73)"/><path class="cls-10" d="M74.05 259.58L31.61 239l24.44 28.36 10.96 8.84 7.66 4.53.17-6.26-1.11-9.99"/><path class="cls-10" d="M115.25 173.82s7.15 20.55 16.6 27.32c0 0-3.45 25.4 5.11 27.06s.35 3.36.35 3.36l-3 4.73-.75 2.6-5.69 1.74-2.7-4.39-.66-22.75.07-6.7-3.19-7-2.72-6.91-2.5-10m185.17 55.41s9.74 26.55 17.4 29.62-3.9 0-3.9 0L303 261.18l-1.71-1.1-.46-14.9v-3.74" transform="translate(-50.16 -57.73)"/><path class="cls-11" d="M54.47 21.86l4.38 16.46"/><path class="cls-11" d="M101.91 68.44s-.38-3.7-5.17-2.68" transform="translate(-50.16 -57.73)"/><path class="cls-11" d="M305.82 226.82l14.77 8"/><path class="cls-12" d="M103.38 111.74s6.73 30.55 19.67 31.91l-2.19 2.89h-8.32l-4.28-3.67-2.15-6.2-3.75-11.57-2.5-8.26-1.07-4.59s2.12-.43 2.89-.51" transform="translate(-50.16 -57.73)"/><path class="cls-12" d="M265.49 210.39l30.48 18.82-2.14 6.37-13.66-7.95-12.8-8.9-5.68-6.57 3.26-1.02.95-.75"/><path d="M346.76 287.46s23.9 20.79 32.79 20-5.44 4.17-5.44 4.17l-9.5-3.32s-12.73-9.06-13.44-9.5-5.58-4.29-5.58-4.29l1.17-3.31M90.19 68.44a7.24 7.24 0 015.42 6c1 5.16 6.67 27.62 6.67 27.62l.49 7.49v1.61l-4.4-1.95-2.87-8.4-1.22-13-3.49-6.38" transform="translate(-50.16 -57.73)" fill="#ce5991"/><path d="M242.66 133s5.74 12.7 6.51 21.5l2.64-5.71-1.81-8.58-.81-3.92-3.37-2.63" transform="translate(-50.16 -57.73)" fill="#ff9fa4"/><path class="cls-15" d="M183.03 74.64l4.68 25.3.84-14.23.44-7.53-2.11-4.21"/><path class="cls-15" d="M221.72 156.78l.26 4.55 3.7 5.84 2.43.52 4.08 2.37s13.28 0 4.53-1.22c-7.45-1-13.66-13.88-15.32-17.64-.29-.65-.44-1-.44-1" transform="translate(-50.16 -57.73)"/><path class="cls-10" d="M219.63 143.76c.2 1.13-6.72 30.74 6.69 31.55s15-6.78 15-6.78l-15.65-1.36-1.79-4.84" transform="translate(-50.16 -57.73)"/><path class="cls-16" d="M217.93 128.08s-2.21 6.89 5.28 6.72 10.85-6 14.66-5.87 7.38 6.13 12.32 5.87 5.19-5.61 2.89-7.65" transform="translate(-50.16 -57.73)"/><path class="cls-16" d="M247.08 134.17a25.51 25.51 0 011.77 25.83c-7.09 14.24-21.06 11.94-25.34 4.47S219 147.33 220.32 142s-.19-7.65-.19-7.65M120 250.8s-6.79 8.2-10.75 7.2-26.8-36.89-26.68-48.51 28.22-62.17 28.22-62.17" transform="translate(-50.16 -57.73)"/><path class="cls-16" d="M124.2 124.93s30.25-63.32 95.86-60.77 72 41.87 93.7 83.11 29.75 66.51 27.32 76.59-18.25 24-18.25 24" transform="translate(-50.16 -57.73)"/><path class="cls-16" d="M323.85 356.89c-25.79 6.51-59.62-20.81-65.23-36.39s-9.2-104.17-3.83-106.47 25.78-.76 42.12-11.38 11.75-52.28 11.75-52.28" transform="translate(-50.16 -57.73)"/><path class="cls-16" d="M303.09 195.75s-5.22 53.35 0 76 18.67 81.36 27.19 99.4 7.65 22.64 4.08 27.06-21.28.86-44.77-27.91c0 0-84.34 22-117.78 2.3 0 0-.68 44.51-7.66 48.76s-28.09-14.81-38-81.19-3.32-123.74-1.28-134.64c0 0-13.28-15.49-9.83-56.72" transform="translate(-50.16 -57.73)"/><path class="cls-16" d="M126.87 140.16s-7 14-18.13 3.66c0 0-8.81-15.32-19.27-72.64 0 0-2.81-9.7 8-10.85s10.25 7.15 15.36 26.67 14.04 53.16 14.04 53.16zm0 0s9.83 25.75 18.51 36.09" transform="translate(-50.16 -57.73)"/><path class="cls-16" d="M128.19 352.55s25-6.26 36.47-15.71 23.23-18.12 30.38-67.15 5.36-61-2.3-62.55c0 0-16.68-4-36.42-22.38s-16-36.76-13.32-55.49m159.85 77.3s26.36 52.15 25.47 62-27-9.45-27-9.45" transform="translate(-50.16 -57.73)"/><path class="cls-16" d="M123.07 218.76c-.35 13.15 3.16 23 6 22.85s10.09-9.07 13.92-24.77 2.42-42 2.42-42m-23.3 129.06S86.87 280.08 79 268.33 52.66 246 52.66 246s16.76 57.12 73.45 94.13m186.11-73.91s-1.9 7.69 11.63 15.86 33.57 20.68 39.57 24.25 13 9.58 20.69-1-23.11-22.72-33.2-28.59-23.51-13.94-23.51-13.94M156.74 117.91s23.49-2.3 46.73 6.12c0 0-22.85 3.2-35.36 12.64m125.38-18.01s-16.9-1.52-33.61 4c0 0 16.44 2.11 25.44 8.36" transform="translate(-50.16 -57.73)"/><ellipse cx="187.71" cy="62.14" rx="4.28" ry="2.25" fill="#232323"/><path class="cls-16" d="M89.79 72.93a18.16 18.16 0 009.12 1.44c5-.57 9.8-4.3 9.8-4.3M97.8 110.38s16.07 3 20-4.4m-17.94 12.28s11.46 2.3 19.91-4.9m226.99 160.92s-7.55 6.13-10.16 15.58M344 294c2.61-9.46 10.16-15.58 10.16-15.58M380.63 294s-9.65 5.9-12.25 15.3M69.27 281.11s7.22 2.46 1.18-8.95c0 0 9.1 8.77 11.31 1M122.33 290c5.55-3.06 37.86-2 37.86-2v-9c-9.45-3.44-39-2.82-39-2.82M123 315s21.33-6 34.1-4.87l.76 6.57s-32.36 6.19-33.13 10.28m179.75-49.22s-25.69-1.38-31.74 0v9.72s31.19 7.1 36.19 9.25m3.76 15.49l-31.86 1.47v9.79s30.06 5.26 37 8.71M238 132.36s3.17 8.77 0 25.71" transform="translate(-50.16 -57.73)"/></svg>